<svg xmlns="http://www.w3.org/2000/svg" viewBox="0 0 800 560" fill="none">
  <rect width="800" height="560" fill="#052B24"/>
  <rect width="800" height="560" fill="url(#nightGlow)"/>

  <g opacity="0.9">
    <circle cx="82" cy="72" r="2" fill="#D9A441"/>
    <circle cx="165" cy="52" r="1.5" fill="#FFF8EF"/>
    <circle cx="260" cy="92" r="2" fill="#D9A441"/>
    <circle cx="525" cy="58" r="1.5" fill="#FFF8EF"/>
    <circle cx="676" cy="78" r="2" fill="#D9A441"/>
    <circle cx="735" cy="46" r="1.5" fill="#FFF8EF"/>
  </g>

  <path d="M40 150C180 102 305 120 410 145C520 171 645 175 760 132" stroke="#B9822E" stroke-width="3"/>
  <g fill="#D9A441">
    <circle cx="84" cy="137" r="8"/>
    <circle cx="173" cy="119" r="8"/>
    <circle cx="270" cy="124" r="8"/>
    <circle cx="370" cy="141" r="8"/>
    <circle cx="470" cy="158" r="8"/>
    <circle cx="572" cy="165" r="8"/>
    <circle cx="671" cy="154" r="8"/>
    <circle cx="742" cy="138" r="8"/>
  </g>
  <g fill="#D9A441" opacity="0.45">
    <circle cx="84" cy="137" r="20"/>
    <circle cx="173" cy="119" r="20"/>
    <circle cx="270" cy="124" r="20"/>
    <circle cx="370" cy="141" r="20"/>
    <circle cx="470" cy="158" r="20"/>
    <circle cx="572" cy="165" r="20"/>
    <circle cx="671" cy="154" r="20"/>
    <circle cx="742" cy="138" r="20"/>
  </g>

  <path d="M0 438C115 400 214 414 308 437C418 463 525 448 637 420C702 403 756 410 800 429V560H0V438Z" fill="#031E19"/>
  <ellipse cx="400" cy="430" rx="200" ry="105" fill="#E47B2C" opacity="0.12"/>

  <g fill="#031E19">
    <circle cx="185" cy="350" r="35"/>
    <path d="M132 448C138 390 154 363 185 363C215 363 233 391 240 448H132Z"/>
    <path d="M122 419L82 466" stroke="#031E19" stroke-width="22" stroke-linecap="round"/>

    <circle cx="290" cy="324" r="32"/>
    <path d="M246 432C251 376 264 338 292 338C321 338 337 377 343 432H246Z"/>

    <circle cx="510" cy="326" r="32"/>
    <path d="M457 435C465 374 480 341 510 341C540 341 554 374 562 435H457Z"/>

    <circle cx="618" cy="350" r="35"/>
    <path d="M558 448C567 390 585 363 618 363C648 363 665 390 672 448H558Z"/>
    <path d="M678 419L718 466" stroke="#031E19" stroke-width="22" stroke-linecap="round"/>
  </g>

  <g>
    <path d="M334 471L390 439" stroke="#7D4A25" stroke-width="16" stroke-linecap="round"/>
    <path d="M466 471L410 439" stroke="#7D4A25" stroke-width="16" stroke-linecap="round"/>
    <path d="M355 482H445" stroke="#4D301D" stroke-width="14" stroke-linecap="round"/>

    <path d="M400 263C411 290 448 303 448 343C448 378 427 404 400 404C373 404 352 378 352 343C352 311 377 294 389 277C394 270 397 266 400 263Z" fill="#E47B2C"/>
    <path d="M400 292C408 309 427 319 427 344C427 366 415 382 400 382C385 382 373 366 373 344C373 326 384 316 392 305C395 301 398 296 400 292Z" fill="#D9A441"/>
    <path d="M400 324C404 333 412 338 412 350C412 360 406 368 400 368C394 368 388 360 388 350C388 341 393 336 397 330C398 328 399 326 400 324Z" fill="#FFF8EF"/>
  </g>

  <g opacity="0.8">
    <path d="M76 560V286" stroke="#031E19" stroke-width="16"/>
    <path d="M76 286C35 242 15 198 7 151C57 166 93 198 110 241" fill="#031E19"/>
    <path d="M78 286C117 237 157 211 208 205C189 255 152 286 103 301" fill="#031E19"/>
    <path d="M724 560V302" stroke="#031E19" stroke-width="16"/>
    <path d="M724 302C687 257 671 214 670 172C715 190 747 222 759 263" fill="#031E19"/>
    <path d="M724 302C763 258 792 242 800 240V310C780 320 755 321 724 302Z" fill="#031E19"/>
  </g>

  <defs>
    <radialGradient id="nightGlow" cx="0" cy="0" r="1" gradientUnits="userSpaceOnUse" gradientTransform="translate(400 402) rotate(-90) scale(275 390)">
      <stop stop-color="#0E473C" stop-opacity="0.95"/>
      <stop offset="0.62" stop-color="#052B24" stop-opacity="0.68"/>
      <stop offset="1" stop-color="#031E19" stop-opacity="0.95"/>
    </radialGradient>
  </defs>
</svg>
