<svg xmlns="http://www.w3.org/2000/svg" viewBox="0 0 420 300" fill="none">
  <path d="M0 280H420V300H0V280Z" fill="#031E19"/>
  <path d="M286 108L328 70L370 108V280H286V108Z" fill="#031E19"/>
  <path d="M312 66L328 37L344 66H312Z" fill="#031E19"/>
  <path d="M324 18H332V42H324V18Z" fill="#031E19"/>
  <path d="M316 28H340V34H316V28Z" fill="#031E19"/>
  <rect x="319" y="166" width="18" height="32" rx="8" fill="#D9A441"/>
  <rect x="345" y="132" width="14" height="23" rx="6" fill="#D9A441"/>
  <rect x="298" y="132" width="14" height="23" rx="6" fill="#D9A441"/>
  <path d="M0 280C42 245 79 232 119 235C166 239 180 268 225 263C268 258 286 235 328 239C367 243 392 260 420 280H0Z" fill="#052B24"/>
  <path d="M78 280V205" stroke="#031E19" stroke-width="8"/>
  <path d="M78 205C53 178 35 149 27 116C58 127 79 147 91 175" fill="#031E19"/>
  <path d="M79 205C101 174 126 154 159 145C150 179 129 202 97 216" fill="#031E19"/>
  <path d="M154 280V218" stroke="#031E19" stroke-width="7"/>
  <path d="M154 218C134 195 121 172 116 146C140 155 158 171 169 194" fill="#031E19"/>
  <path d="M155 218C175 194 196 180 222 174C215 201 198 220 173 232" fill="#031E19"/>
</svg>
