<svg xmlns="http://www.w3.org/2000/svg" viewBox="0 0 420 420" fill="none">
  <path d="M35 390C76 276 132 178 241 76" stroke="#0E473C" stroke-width="18" stroke-linecap="round"/>
  <path d="M111 256C67 216 46 174 39 128C86 141 125 169 150 209" fill="#0E473C"/>
  <path d="M147 204C111 149 102 102 110 56C154 80 185 116 196 160" fill="#176052"/>
  <path d="M191 160C173 102 181 56 203 19C238 52 257 94 251 137" fill="#0E473C"/>
  <path d="M236 119C239 71 261 37 293 15C310 56 309 94 286 128" fill="#176052"/>
  <path d="M255 174C295 126 337 103 383 99C366 144 334 178 292 197" fill="#0E473C"/>
  <path d="M213 218C262 187 307 180 351 191C322 229 285 252 241 257" fill="#176052"/>
  <path d="M162 272C214 256 260 263 299 285C260 314 216 323 172 309" fill="#0E473C"/>
  <path d="M96 330C143 331 184 349 216 380C171 392 128 385 92 359" fill="#176052"/>
  <circle cx="248" cy="75" r="5" fill="#D9A441"/>
  <circle cx="321" cy="153" r="4" fill="#D9A441"/>
</svg>
